<svg xmlns="http://www.w3.org/2000/svg" viewBox="0 0 1024 544">
  <!-- Araverus logo - optimized for tsParticles polygon mask -->
  <path fill="#1A1A1A" d="M264.531342,1.000000 C277.902740,3.401698 291.007385,4.843659 303.589355,8.785458 C320.969482,14.230463 337.681702,21.244528 353.382874,30.543762 C354.930908,31.460615 356.351715,32.592281 357.517914,33.405525 C357.960327,35.469193 356.914459,36.442753 356.104858,37.442120 C346.756256,48.981995 338.087341,61.000599 330.774353,73.940735 C329.058350,76.977119 327.470459,76.709976 324.797424,75.178200 C306.284241,64.569290 286.664886,57.074734 265.380402,54.207207 C234.784241,50.085178 205.241074,53.901901 177.011566,66.316536 C136.343002,84.201576 106.968346,114.177528 86.237267,152.985168 C70.624947,182.210724 61.020687,213.349487 57.137714,246.296738 C52.676041,284.154266 54.668816,321.419800 67.372864,357.611115 C77.891846,387.577576 93.845390,413.989990 120.032791,433.062775 C138.883453,446.792023 159.935883,454.804474 183.283127,456.770721 C229.562912,460.668243 267.040802,443.020172 298.473785,410.214355 C314.243164,393.756287 326.694611,374.802887 339.447876,356.085297 C354.881104,333.434357 371.270874,311.668243 392.761627,294.234192 C418.513031,273.343719 447.799896,260.916260 480.664886,256.610931 C494.717407,254.770065 508.863129,254.649506 522.942810,253.522354 C553.631592,251.065598 579.979614,238.782730 602.154297,217.334671 C619.262512,200.787018 633.042175,181.555359 647.191589,162.605392 C660.463379,144.830673 673.869507,127.173790 691.242004,113.059418 C713.553162,94.932594 738.894714,84.254425 767.642761,81.534264 C795.283813,78.918846 821.772461,82.389694 846.703430,95.126495 C850.933899,97.287758 855.157043,99.544785 859.132141,102.864609 C856.636780,104.922630 854.212402,104.200119 852.048157,104.127815 C828.144653,103.329208 804.934387,106.677818 782.479797,115.123131 C749.479736,127.534668 723.686890,149.237946 702.353516,176.782288 C700.580505,179.071609 700.216736,181.279999 701.028992,184.186081 C706.446289,203.568588 710.704590,223.192932 713.542175,243.146561 C717.938843,274.064148 719.699158,305.050171 717.412231,336.235748 C714.963440,369.627106 708.599609,402.181366 696.129456,433.329315 C682.226440,468.056458 662.475525,498.703278 632.648438,522.128418 C621.176208,531.138306 608.530029,538.133545 595.259277,544.779419 C539.312439,545.000000 483.624878,545.000000 427.265625,544.726440 C425.905273,544.002380 425.262726,543.448914 424.521179,543.116089 C396.973663,530.748718 374.793365,511.829041 356.861237,487.723602 C349.482727,477.804962 343.222595,467.213959 337.774231,456.120453 C335.385834,451.257385 333.885712,451.066071 329.970886,454.607483 C327.749176,456.617310 325.494171,458.590576 323.243439,460.568176 C277.705566,500.580383 225.108536,517.517700 164.855484,508.203339 C120.141029,501.291016 83.776833,479.256866 54.768707,444.883453 C28.449373,413.696106 13.524833,377.175323 5.705112,337.516235 C3.715807,327.427124 2.546222,317.176453 0.999999,307.000000 C1.000000,289.645782 1.000000,272.291534 1.112355,254.099945 C2.457975,244.218628 3.320832,235.105927 4.985111,226.141998 C15.167595,171.298538 35.655678,121.129845 72.999504,78.846992 C103.035172,44.838856 139.387329,20.579367 183.334579,8.163923 C195.380203,4.760945 207.762192,3.300227 220.000000,1.000000 C234.687561,1.000000 249.375122,1.000000 264.531342,1.000000 M614.908264,465.410858 C629.981445,448.255524 640.141785,428.291595 647.760559,406.988007 C656.718201,381.940765 661.429504,356.017029 663.111023,329.475372 C664.949890,300.450439 663.430603,271.631500 658.773987,242.949554 C658.505737,241.296906 658.550354,239.364944 656.627502,238.809128 C654.635010,238.233185 653.703552,240.130005 652.691040,241.318665 C645.648376,249.585999 637.840210,257.073639 629.596680,264.111176 C602.525696,287.222076 571.392639,300.975983 536.000000,305.464264 C520.287842,307.456757 504.452454,306.865601 488.746857,309.082916 C460.607971,313.055634 436.194336,324.085693 416.025604,344.357269 C400.874969,359.585083 389.197968,377.411285 377.047150,394.924011 C374.874725,398.055023 374.622803,400.797028 375.695038,404.153168 C378.686981,413.518127 382.165710,422.672333 386.298950,431.609985 C400.793823,462.953278 423.309448,485.941895 455.965546,498.063232 C479.255463,506.707947 503.386505,509.102844 528.157837,506.868500 C562.044861,503.812012 591.171082,491.164185 614.908264,465.410858 z"/>
  <path fill="#1A1A1A" d="M1025.000000,306.531342 C1023.446899,317.845459 1022.415649,328.796295 1020.250793,339.518188 C1010.473450,387.940369 992.301819,432.601105 959.279236,470.126434 C927.815735,505.880219 888.844299,528.953003 841.452087,536.049438 C787.145264,544.181274 737.671082,531.780823 693.624573,498.652924 C691.894958,497.352112 690.260986,495.924927 688.564453,494.579346 C686.707520,493.106567 686.287292,491.418610 687.630005,489.362885 C696.574158,475.670166 704.129822,461.219971 711.071899,446.432465 C711.327759,445.887451 711.994934,445.535583 712.601379,444.971924 C716.261230,446.886780 718.920227,449.916443 721.944580,452.453705 C751.990295,477.661102 786.872925,488.026825 825.522522,484.336090 C870.383118,480.052246 904.295593,456.610046 929.929688,420.542572 C948.135254,394.927002 959.603821,366.207092 965.530212,335.467041 C977.856262,271.531738 970.307556,210.114365 939.457031,152.404129 C917.028625,110.448647 884.741516,78.429100 839.203979,62.336571 C787.283569,43.988373 737.974182,50.829544 691.929443,81.108826 C688.354736,83.459579 684.968140,87.985794 680.963745,87.310440 C677.091125,86.657303 676.217712,80.965263 673.899109,77.586655 C667.388550,68.099770 660.731079,58.732422 653.238953,50.000336 C650.934753,47.314747 650.504822,45.626236 653.756958,43.268265 C683.397339,21.777029 715.945862,7.432734 752.432739,2.577860 C754.737305,2.271223 757.012329,1.743113 759.650513,1.159020 C775.687561,1.000000 791.375122,1.000000 807.872314,1.166682 C811.959656,1.845021 815.242126,2.327811 818.514282,2.872648 C872.561340,11.871589 917.164551,37.834538 953.077576,78.771637 C988.039856,118.624939 1008.792297,165.454163 1019.430969,217.106079 C1021.880859,229.000504 1022.691833,241.107620 1025.000000,253.000000 C1025.000000,270.687561 1025.000000,288.375122 1025.000000,306.531342 z"/>
  <path fill="#1A1A1A" d="M532.531372,1.000000 C543.525513,3.400032 554.246826,4.898969 564.526978,8.423409 C598.001404,19.899750 623.969482,41.274315 645.150452,69.073662 C653.348389,79.833160 660.394714,91.320763 667.203369,102.981995 C669.178040,106.364006 669.143127,108.718582 666.081360,111.620331 C654.915833,122.202408 645.720215,134.488846 636.550110,146.779419 C635.297607,148.458099 634.436462,150.577454 632.276917,151.431686 C630.271851,150.827286 630.153259,148.972076 629.438904,147.536285 C618.209595,124.965843 606.380615,102.793457 588.299988,84.701370 C564.323608,60.709774 535.499329,49.855083 501.706665,53.470318 C475.614502,56.261726 454.734741,69.233955 437.238525,88.271927 C416.158020,111.210045 402.296997,138.455612 390.465149,166.858749 C377.987457,196.812149 369.735168,227.960876 365.573914,260.136292 C364.102905,271.510376 363.374054,282.982666 362.424713,294.419983 C362.240662,296.636993 362.027405,298.604980 360.349121,300.328735 C343.994171,317.127014 330.794281,336.344299 317.911804,355.806122 C316.374146,358.129028 315.052246,360.668091 312.273804,362.793945 C309.654449,358.835144 310.402893,354.340088 309.976288,350.345795 C308.172333,333.454926 307.150543,316.491394 307.784546,299.488342 C310.317657,231.552933 326.609619,167.312225 359.370331,107.479759 C373.964417,80.825798 391.295166,56.310562 414.659760,36.549614 C436.096802,18.418909 460.420471,6.376882 488.495972,2.556738 C490.132202,2.334098 491.718689,1.745557 493.664154,1.163648 C506.687561,1.000000 519.375122,1.000000 532.531372,1.000000 z"/>
</svg>
