<svg version="1.1" id="Layer_1" xmlns="http://www.w3.org/2000/svg" xmlns:xlink="http://www.w3.org/1999/xlink" x="0px" y="0px"
	 width="100%" viewBox="0 0 1024 1024" enable-background="new 0 0 1024 1024" xml:space="preserve">
<path fill="#000000" opacity="1.000000" stroke="none" 
	d="
M1025.000000,39.531342 
	C1022.412842,39.083797 1019.724243,39.383186 1017.070862,39.383125 
	C682.848938,39.375679 348.627045,39.379520 14.405114,39.375458 
	C10.241352,39.375408 6.077591,39.281033 1.456915,39.115341 
	C1.000000,26.338364 1.000000,13.676729 1.000000,1.038985 
	C342.333344,1.038985 683.666687,1.038985 1025.000000,1.038985 
	C1025.000000,13.739540 1025.000000,26.401112 1025.000000,39.531342 
z"/>
<path fill="#000000" opacity="1.000000" stroke="none" 
	d="
M1.000000,986.468628 
	C3.909557,987.078125 6.940279,986.628357 9.916682,986.628540 
	C344.974762,986.649475 680.032837,986.647827 1015.090881,986.653625 
	C1018.088623,986.653687 1021.086365,986.735474 1024.541992,986.889526 
	C1025.000000,999.661621 1025.000000,1012.323242 1025.000000,1024.961060 
	C683.666687,1024.961060 342.333344,1024.961060 1.000000,1024.961060 
	C1.000000,1012.260498 1.000000,999.598938 1.000000,986.468628 
z"/>
<path fill="#000000" opacity="1.000000" stroke="none" 
	d="
M572.153442,176.671967 
	C643.437561,184.618286 705.190247,212.904739 758.077271,260.362793 
	C814.660645,311.137756 850.174683,374.268921 864.586609,448.774902 
	C875.990295,507.729401 871.264526,565.737854 850.623596,622.370178 
	C837.881287,657.331360 819.514465,688.990845 796.432678,718.035156 
	C791.848450,723.803528 791.779602,723.863770 785.741699,719.975525 
	C763.891907,705.905090 742.078186,691.778625 720.249084,677.676086 
	C719.740356,677.347412 719.210571,677.051392 718.126038,677.269348 
	C727.556396,691.127136 736.973633,704.993896 746.422058,718.839355 
	C752.338989,727.509705 758.137939,736.268250 764.324524,744.742920 
	C766.896667,748.266357 766.813232,750.406860 763.484314,753.440125 
	C733.653931,780.620972 700.428467,802.478699 663.192810,818.155090 
	C617.191345,837.521851 569.233887,846.533813 519.394409,843.988770 
	C457.125336,840.809082 399.899017,821.854004 348.082306,786.996948 
	C303.195190,756.801575 267.206604,718.233276 240.700104,671.095276 
	C217.464340,629.773804 203.269531,585.536194 199.554703,538.059387 
	C195.071106,480.757538 204.263718,425.806427 227.831985,373.427673 
	C247.582520,329.533569 275.585999,291.576263 311.589447,259.512238 
	C350.589081,224.779877 395.205872,200.310440 445.432159,186.286423 
	C484.660645,175.333191 524.723206,172.500885 565.259155,175.836578 
	C567.413635,176.013870 569.553223,176.373138 572.153442,176.671967 
M308.617157,286.116669 
	C279.311127,315.292206 256.808960,349.075531 240.818192,387.145172 
	C217.303040,443.128326 209.577530,501.192322 219.617447,561.207886 
	C227.287628,607.057861 244.710114,649.116272 271.112244,687.420654 
	C298.804657,727.597046 333.969910,759.673340 376.072754,784.211304 
	C419.607025,809.583618 466.635071,823.667297 516.855347,826.527161 
	C549.972656,828.413208 582.765503,825.259460 614.865662,816.549622 
	C661.562317,803.879272 703.394653,781.870972 740.463745,750.745850 
	C743.928101,747.836853 744.527405,745.766602 741.781433,741.790588 
	C724.927795,717.386719 708.349243,692.792725 691.715820,668.237061 
	C687.468567,661.966858 687.551270,661.947998 692.827637,656.878845 
	C694.989258,654.802063 697.228577,652.758667 699.086243,650.424561 
	C701.658569,647.192566 703.940674,647.000854 707.499207,649.322510 
	C732.614441,665.708435 757.947205,681.761597 783.009521,698.226990 
	C787.103088,700.916382 788.822205,699.895325 791.310425,696.471008 
	C835.049255,636.278259 856.408813,569.307739 852.873108,494.689911 
	C851.780945,471.640167 848.063293,448.997375 841.869629,426.842377 
	C824.592529,365.041016 792.035583,312.738159 743.565186,270.475769 
	C693.761902,227.051178 635.922363,201.591522 570.485657,193.489609 
	C538.365723,189.512726 506.334351,191.133453 474.565521,197.359024 
	C410.433289,209.926636 355.404175,239.583862 308.617157,286.116669 
z"/>
<path fill="#000000" opacity="1.000000" stroke="none" 
	d="
M537.765259,552.271484 
	C513.916992,552.527161 497.899261,540.008545 493.185272,517.811951 
	C488.519287,495.841400 503.152374,473.481140 525.259094,468.801086 
	C548.068787,463.972198 570.335144,477.830170 575.238831,499.907166 
	C581.046326,526.053101 565.172363,548.504822 537.765259,552.271484 
z"/>
</svg>